<?xml version="1.0" encoding="UTF-8" standalone="no"?>
<!-- Created with Inkscape (http://www.inkscape.org/) -->

<svg
   width="320mm"
   height="150mm"
   viewBox="0 0 320 150"
   version="1.1"
   id="svg5"
   inkscape:version="1.1.2 (b8e25be833, 2022-02-05)"
   sodipodi:docname="MEDIUM_LOGO.svg"
   inkscape:export-filename="C:\Users\freso\Documents\BTD\MEDIUM_LOGO.png"
   inkscape:export-xdpi="57.149998"
   inkscape:export-ydpi="57.149998"
   xmlns:inkscape="http://www.inkscape.org/namespaces/inkscape"
   xmlns:sodipodi="http://sodipodi.sourceforge.net/DTD/sodipodi-0.dtd"
   xmlns="http://www.w3.org/2000/svg"
   xmlns:svg="http://www.w3.org/2000/svg">
  <sodipodi:namedview
     id="namedview7"
     pagecolor="#505050"
     bordercolor="#eeeeee"
     borderopacity="1"
     inkscape:pageshadow="0"
     inkscape:pageopacity="0"
     inkscape:pagecheckerboard="0"
     inkscape:document-units="mm"
     showgrid="false"
     units="mm"
     width="300mm"
     inkscape:zoom="0.70710678"
     inkscape:cx="376.88792"
     inkscape:cy="328.09755"
     inkscape:window-width="1920"
     inkscape:window-height="1057"
     inkscape:window-x="-8"
     inkscape:window-y="-8"
     inkscape:window-maximized="1"
     inkscape:current-layer="layer4"
     height="150mm"
     fit-margin-left="10"
     fit-margin-top="10"
     fit-margin-right="10"
     fit-margin-bottom="10" />
  <defs
     id="defs2">
    <rect
       x="381.13055"
       y="293.44931"
       width="82.731491"
       height="70.710678"
       id="rect54067" />
    <rect
       x="360.62445"
       y="299.81329"
       width="424.26407"
       height="60.811184"
       id="rect32254" />
    <rect
       x="365.57422"
       y="287.79245"
       width="408.70773"
       height="53.740116"
       id="rect29014" />
    <inkscape:path-effect
       effect="bspline"
       id="path-effect22312"
       is_visible="true"
       lpeversion="1"
       weight="33.333333"
       steps="2"
       helper_size="0"
       apply_no_weight="true"
       apply_with_weight="true"
       only_selected="false" />
    <inkscape:path-effect
       effect="bspline"
       id="path-effect20413"
       is_visible="true"
       lpeversion="1"
       weight="33.333333"
       steps="2"
       helper_size="0"
       apply_no_weight="true"
       apply_with_weight="true"
       only_selected="false" />
    <inkscape:path-effect
       effect="bspline"
       id="path-effect22312-9"
       is_visible="true"
       lpeversion="1"
       weight="33.333333"
       steps="2"
       helper_size="0"
       apply_no_weight="true"
       apply_with_weight="true"
       only_selected="false" />
    <inkscape:path-effect
       effect="bspline"
       id="path-effect22312-1"
       is_visible="true"
       lpeversion="1"
       weight="33.333333"
       steps="2"
       helper_size="0"
       apply_no_weight="true"
       apply_with_weight="true"
       only_selected="false" />
    <inkscape:path-effect
       effect="bspline"
       id="path-effect22312-1-3"
       is_visible="true"
       lpeversion="1"
       weight="33.333333"
       steps="2"
       helper_size="0"
       apply_no_weight="true"
       apply_with_weight="true"
       only_selected="false" />
    <inkscape:path-effect
       effect="mirror_symmetry"
       start_point="100,49.999997"
       end_point="100,300.00684"
       center_point="100,175.00342"
       id="path-effect99452"
       is_visible="true"
       lpeversion="1.1"
       mode="free"
       discard_orig_path="false"
       fuse_paths="false"
       oposite_fuse="false"
       split_items="false"
       split_open="false" />
    <inkscape:path-effect
       effect="mirror_symmetry"
       start_point="100,49.999997"
       end_point="100,300.00684"
       center_point="100,175.00342"
       id="path-effect99452-1"
       is_visible="true"
       lpeversion="1.1"
       mode="free"
       discard_orig_path="false"
       fuse_paths="false"
       oposite_fuse="false"
       split_items="false"
       split_open="false" />
    <inkscape:path-effect
       effect="mirror_symmetry"
       start_point="100,49.999997"
       end_point="100,300.00684"
       center_point="100,175.00342"
       id="path-effect99452-3"
       is_visible="true"
       lpeversion="1.1"
       mode="free"
       discard_orig_path="false"
       fuse_paths="false"
       oposite_fuse="false"
       split_items="false"
       split_open="false" />
    <inkscape:path-effect
       effect="mirror_symmetry"
       start_point="100,49.999997"
       end_point="100,300.00684"
       center_point="100,175.00342"
       id="path-effect99452-7"
       is_visible="true"
       lpeversion="1.1"
       mode="free"
       discard_orig_path="false"
       fuse_paths="false"
       oposite_fuse="false"
       split_items="false"
       split_open="false" />
    <inkscape:path-effect
       effect="mirror_symmetry"
       start_point="100,49.999997"
       end_point="100,300.00684"
       center_point="100,175.00342"
       id="path-effect99452-34"
       is_visible="true"
       lpeversion="1.1"
       mode="free"
       discard_orig_path="false"
       fuse_paths="false"
       oposite_fuse="false"
       split_items="false"
       split_open="false" />
    <inkscape:path-effect
       effect="bspline"
       id="path-effect22312-1-3-9"
       is_visible="true"
       lpeversion="1"
       weight="33.333333"
       steps="2"
       helper_size="0"
       apply_no_weight="true"
       apply_with_weight="true"
       only_selected="false" />
    <inkscape:path-effect
       effect="bspline"
       id="path-effect22312-1-3-9-4"
       is_visible="true"
       lpeversion="1"
       weight="33.333333"
       steps="2"
       helper_size="0"
       apply_no_weight="true"
       apply_with_weight="true"
       only_selected="false" />
  </defs>
  <g
     inkscape:groupmode="layer"
     id="layer3"
     inkscape:label="Teeth"
     style="display:inline"
     transform="translate(10,5.2681822)"
     sodipodi:insensitive="true">
    <rect
       style="fill:#509350;fill-opacity:1;stroke:none;stroke-width:1.46787;stroke-miterlimit:4;stroke-dasharray:none;stroke-opacity:1"
       id="rect24373"
       width="4"
       height="13"
       x="103"
       y="33" />
    <rect
       style="fill:#509350;fill-opacity:1;stroke:none;stroke-width:1.46786;stroke-miterlimit:4;stroke-dasharray:none;stroke-opacity:1"
       id="rect24373-9"
       width="4"
       height="13"
       x="133"
       y="33" />
    <rect
       style="fill:#509350;fill-opacity:1;stroke:none;stroke-width:1.46785;stroke-miterlimit:4;stroke-dasharray:none;stroke-opacity:1"
       id="rect24373-0"
       width="4"
       height="13"
       x="193"
       y="33" />
    <rect
       style="fill:#509350;fill-opacity:1;stroke:none;stroke-width:1.46786;stroke-miterlimit:4;stroke-dasharray:none;stroke-opacity:1"
       id="rect24373-09"
       width="4"
       height="13"
       x="163"
       y="33" />
    <rect
       style="fill:#509350;fill-opacity:1;stroke:none;stroke-width:1.41028;stroke-miterlimit:4;stroke-dasharray:none;stroke-opacity:1"
       id="rect24373-5"
       width="4"
       height="12"
       x="73"
       y="40" />
    <rect
       style="fill:#7fd15c;fill-opacity:1;stroke:none;stroke-width:1.41028;stroke-miterlimit:4;stroke-dasharray:none;stroke-opacity:1"
       id="rect24373-5-7"
       width="4"
       height="12"
       x="19.25"
       y="40" />
    <rect
       style="fill:#509350;fill-opacity:1;stroke:none;stroke-width:1.41028;stroke-miterlimit:4;stroke-dasharray:none;stroke-opacity:1"
       id="rect24373-5-6"
       width="4"
       height="12"
       x="-227.00002"
       y="40"
       transform="scale(-1,1)" />
    <rect
       style="fill:#7fd15c;fill-opacity:1;stroke:none;stroke-width:1.41028;stroke-miterlimit:4;stroke-dasharray:none;stroke-opacity:1"
       id="rect24373-5-7-0"
       width="4"
       height="12"
       x="-280.75"
       y="40"
       transform="scale(-1,1)" />
    <rect
       style="fill:#7fd15c;fill-opacity:1;stroke:none;stroke-width:1.46787;stroke-miterlimit:4;stroke-dasharray:none;stroke-opacity:1"
       id="rect24373-03"
       width="4"
       height="13"
       x="102.99999"
       y="-107"
       transform="scale(1,-1)" />
    <rect
       style="fill:#7fd15c;fill-opacity:1;stroke:none;stroke-width:1.46786;stroke-miterlimit:4;stroke-dasharray:none;stroke-opacity:1"
       id="rect24373-9-4"
       width="4"
       height="13"
       x="133"
       y="-107"
       transform="scale(1,-1)" />
    <rect
       style="fill:#7fd15c;fill-opacity:1;stroke:none;stroke-width:1.46785;stroke-miterlimit:4;stroke-dasharray:none;stroke-opacity:1"
       id="rect24373-0-6"
       width="4"
       height="13"
       x="193"
       y="-107"
       transform="scale(1,-1)" />
    <rect
       style="fill:#7fd15c;fill-opacity:1;stroke:none;stroke-width:1.46786;stroke-miterlimit:4;stroke-dasharray:none;stroke-opacity:1"
       id="rect24373-09-2"
       width="4"
       height="13"
       x="163"
       y="-107"
       transform="scale(1,-1)" />
    <rect
       style="fill:#7fd15c;fill-opacity:1;stroke:none;stroke-width:1.41029;stroke-miterlimit:4;stroke-dasharray:none;stroke-opacity:1"
       id="rect24373-5-5"
       width="4"
       height="12"
       x="72.999992"
       y="-100"
       transform="scale(1,-1)" />
    <rect
       style="fill:#509350;fill-opacity:1;stroke:none;stroke-width:1.41029;stroke-miterlimit:4;stroke-dasharray:none;stroke-opacity:1"
       id="rect24373-5-7-2"
       width="4"
       height="12"
       x="19.25"
       y="-100"
       transform="scale(1,-1)" />
    <rect
       style="fill:#7fd15c;fill-opacity:1;stroke:none;stroke-width:1.41029;stroke-miterlimit:4;stroke-dasharray:none;stroke-opacity:1"
       id="rect24373-5-6-7"
       width="4"
       height="12"
       x="-227"
       y="-100"
       transform="scale(-1)" />
    <rect
       style="fill:#509350;fill-opacity:1;stroke:none;stroke-width:1.41029;stroke-miterlimit:4;stroke-dasharray:none;stroke-opacity:1"
       id="rect24373-5-7-0-5"
       width="4"
       height="12"
       x="-280.75"
       y="-100"
       transform="scale(-1)" />
    <text
       xml:space="preserve"
       transform="scale(0.26458333)"
       id="text29012"
       style="font-style:normal;font-weight:normal;font-size:40px;line-height:1.25;font-family:sans-serif;white-space:pre;shape-inside:url(#rect29014);fill:#000000;fill-opacity:1;stroke:none" />
  </g>
  <g
     inkscape:groupmode="layer"
     id="layer2"
     inkscape:label="Backbones"
     style="display:inline"
     transform="translate(10,5.2681822)"
     sodipodi:insensitive="true">
    <path
       style="fill:none;stroke:#7fd15c;stroke-width:4.87083;stroke-linecap:butt;stroke-linejoin:miter;stroke-miterlimit:4;stroke-dasharray:none;stroke-opacity:1"
       d="m 0,32.435415 c 6.66693,0 13.3336,0 25.833657,12.521758 12.500057,12.521759 30.833025,37.564261 44.166566,50.085754 13.333541,12.521493 21.666711,12.521493 42.500377,12.521493 20.83366,0 54.16633,0 74.99974,0 20.83342,0 29.16659,0 42.50006,-12.521872 13.33347,-12.521872 31.66643,-37.56437 44.16655,-50.085751 C 286.66707,32.435415 293.33359,32.435415 300,32.435415"
       id="path22310-2"
       inkscape:path-effect="#path-effect22312-1-3"
       inkscape:original-d="m 0,32.435415 c 6.66693,-1.71e-4 13.3336,-1.71e-4 20.000004,0 18.33396,25.043334 36.66693,50.085835 55,75.129005 8.33376,-1.7e-4 16.66693,-1.7e-4 24.999996,0 33.33426,-1.7e-4 66.66693,-1.7e-4 100,0 8.33376,-1.7e-4 16.66693,-1.7e-4 25,0 18.33396,-25.04368 36.66693,-50.086172 54.99999,-75.129005 6.66708,-1.71e-4 13.3336,-1.71e-4 20.00001,0" />
    <path
       style="fill:none;stroke:#509350;stroke-width:4.87083;stroke-linecap:butt;stroke-linejoin:miter;stroke-miterlimit:4;stroke-dasharray:none;stroke-opacity:1"
       d="m 0,107.56447 c 6.66693,0 13.3336,0 25.833656,-12.52176 C 38.333713,82.520949 56.666675,57.478453 70.000217,44.956958 83.33376,32.435462 91.66693,32.435462 112.5006,32.435462 c 20.83366,0 54.16633,0 74.99974,0 20.83342,0 29.16659,0 42.50006,12.521871 13.33347,12.521872 31.66644,37.564375 44.16655,50.085756 C 286.66707,107.56447 293.33359,107.56447 300,107.56447"
       id="path22310"
       inkscape:path-effect="#path-effect22312-1"
       inkscape:original-d="m 0,107.56447 c 6.66693,1.7e-4 13.3336,1.7e-4 20,0 18.33396,-25.04334 36.66693,-50.08583 55,-75.129008 8.33376,1.73e-4 16.66693,1.73e-4 25,0 33.33426,1.73e-4 66.66693,1.73e-4 100,0 8.33376,1.73e-4 16.66693,1.73e-4 25,0 18.33396,25.043678 36.66693,50.086178 54.99999,75.129008 6.66708,1.7e-4 13.3336,1.7e-4 20.00001,0" />
  </g>
  <g
     inkscape:groupmode="layer"
     id="layer1"
     inkscape:label="Overlap Backbone"
     style="display:inline"
     sodipodi:insensitive="true">
    <path
       style="display:inline;fill:none;stroke:#7fd15c;stroke-width:4.87083;stroke-linecap:butt;stroke-linejoin:miter;stroke-miterlimit:4;stroke-dasharray:none;stroke-opacity:1"
       d="m 149.15833,112.8326 c 20.28123,0 40.56138,0 54.86841,0 14.30702,0 22.64019,0 35.97366,-12.52187 C 253.33387,87.78886 271.66684,62.746358 284.16696,50.224978 296.66707,37.703597 303.33359,37.703597 310,37.703597"
       id="path22310-2-7"
       inkscape:path-effect="#path-effect22312-1-3-9-4"
       inkscape:original-d="m 149.15833,112.8326 c 20.28123,2.6e-4 40.56138,2.6e-4 60.84167,0 8.33376,-1.7e-4 16.66693,-1.7e-4 25,0 18.33396,-25.043677 36.66694,-50.08617 55,-75.129003 6.66707,-1.71e-4 13.33359,-1.71e-4 20,0"
       sodipodi:nodetypes="ccccc" />
  </g>
  <g
     inkscape:groupmode="layer"
     id="layer4"
     inkscape:label="Letters - Upper"
     transform="translate(10,5.2681822)">
    <text
       xml:space="preserve"
       style="font-style:normal;font-weight:normal;font-size:10.5833px;line-height:1.25;font-family:sans-serif;fill:#509350;fill-opacity:1;stroke:none;stroke-width:0.265;stroke-miterlimit:4;stroke-dasharray:none"
       x="95.782532"
       y="66.467087"
       id="text55437"><tspan
         sodipodi:role="line"
         id="tspan55435"
         style="font-style:normal;font-variant:normal;font-weight:normal;font-stretch:normal;font-size:25.4px;font-family:Verdana;-inkscape-font-specification:'Verdana, Normal';font-variant-ligatures:normal;font-variant-caps:normal;font-variant-numeric:normal;font-variant-east-asian:normal;fill:#509350;fill-opacity:1;stroke-width:0.265;stroke-miterlimit:4;stroke-dasharray:none"
         x="95.782532"
         y="66.467087">B</tspan><tspan
         sodipodi:role="line"
         style="fill:#509350;fill-opacity:1;stroke-width:0.265;stroke-miterlimit:4;stroke-dasharray:none"
         x="95.782532"
         y="84.699364"
         id="tspan55439" /></text>
    <text
       xml:space="preserve"
       style="font-style:normal;font-weight:normal;font-size:10.5833px;line-height:1.25;font-family:sans-serif;fill:#509350;fill-opacity:1;stroke:none;stroke-width:0.265;stroke-miterlimit:4;stroke-dasharray:none"
       x="127.14"
       y="66.467087"
       id="text56169"><tspan
         sodipodi:role="line"
         id="tspan56167"
         style="font-style:normal;font-variant:normal;font-weight:normal;font-stretch:normal;font-size:25.4px;font-family:Verdana;-inkscape-font-specification:'Verdana, Normal';font-variant-ligatures:normal;font-variant-caps:normal;font-variant-numeric:normal;font-variant-east-asian:normal;fill:#509350;fill-opacity:1;stroke-width:0.265;stroke-miterlimit:4;stroke-dasharray:none"
         x="127.14"
         y="66.467087">T</tspan></text>
    <text
       xml:space="preserve"
       style="font-style:normal;font-weight:normal;font-size:10.5833px;line-height:1.25;font-family:sans-serif;fill:#509350;fill-opacity:1;stroke:none;stroke-width:0.265;stroke-miterlimit:4;stroke-dasharray:none"
       x="154.96053"
       y="66.467087"
       id="text56869"><tspan
         sodipodi:role="line"
         style="font-style:normal;font-variant:normal;font-weight:normal;font-stretch:normal;font-size:25.4px;font-family:Verdana;-inkscape-font-specification:'Verdana, Normal';font-variant-ligatures:normal;font-variant-caps:normal;font-variant-numeric:normal;font-variant-east-asian:normal;fill:#509350;fill-opacity:1;stroke-width:0.265;stroke-miterlimit:4;stroke-dasharray:none"
         x="154.96053"
         y="66.467087"
         id="tspan57443">D</tspan></text>
    <text
       xml:space="preserve"
       transform="scale(0.26458333)"
       id="text54065"
       style="font-style:normal;font-weight:normal;font-size:40px;line-height:1.25;font-family:sans-serif;white-space:pre;shape-inside:url(#rect54067);fill:#000000;fill-opacity:1;stroke:none" />
    <text
       xml:space="preserve"
       style="font-style:normal;font-weight:normal;font-size:10.5833px;line-height:1.25;font-family:sans-serif;fill:#7fd15c;fill-opacity:1;stroke:none;stroke-width:0.265;stroke-miterlimit:4;stroke-dasharray:none"
       x="96.752434"
       y="92.351562"
       id="text55437-5"><tspan
         sodipodi:role="line"
         id="tspan55435-2"
         style="font-style:normal;font-variant:normal;font-weight:normal;font-stretch:normal;font-size:25.4px;font-family:Verdana;-inkscape-font-specification:'Verdana, Normal';font-variant-ligatures:normal;font-variant-caps:normal;font-variant-numeric:normal;font-variant-east-asian:normal;fill:#7fd15c;fill-opacity:1;stroke-width:0.265;stroke-miterlimit:4;stroke-dasharray:none"
         x="96.752434"
         y="92.351562">2</tspan><tspan
         sodipodi:role="line"
         style="fill:#7fd15c;fill-opacity:1;stroke-width:0.265;stroke-miterlimit:4;stroke-dasharray:none"
         x="96.752434"
         y="110.58384"
         id="tspan55439-2" /></text>
    <text
       xml:space="preserve"
       style="font-style:normal;font-weight:normal;font-size:10.5833px;line-height:1.25;font-family:sans-serif;fill:#7fd15c;fill-opacity:1;stroke:none;stroke-width:0.265;stroke-miterlimit:4;stroke-dasharray:none"
       x="126.91367"
       y="92.351562"
       id="text55437-5-6"><tspan
         sodipodi:role="line"
         id="tspan55435-2-9"
         style="font-style:normal;font-variant:normal;font-weight:normal;font-stretch:normal;font-size:25.4px;font-family:Verdana;-inkscape-font-specification:'Verdana, Normal';font-variant-ligatures:normal;font-variant-caps:normal;font-variant-numeric:normal;font-variant-east-asian:normal;fill:#7fd15c;fill-opacity:1;stroke-width:0.265;stroke-miterlimit:4;stroke-dasharray:none"
         x="126.91367"
         y="92.351562">0</tspan><tspan
         sodipodi:role="line"
         style="fill:#7fd15c;fill-opacity:1;stroke-width:0.265;stroke-miterlimit:4;stroke-dasharray:none"
         x="126.91367"
         y="110.58384"
         id="tspan55439-2-9" /></text>
    <text
       xml:space="preserve"
       style="font-style:normal;font-weight:normal;font-size:10.5833px;line-height:1.25;font-family:sans-serif;fill:#7fd15c;fill-opacity:1;stroke:none;stroke-width:0.265;stroke-miterlimit:4;stroke-dasharray:none"
       x="156.75244"
       y="92.351562"
       id="text55437-5-2"><tspan
         sodipodi:role="line"
         id="tspan55435-2-0"
         style="font-style:normal;font-variant:normal;font-weight:normal;font-stretch:normal;font-size:25.4px;font-family:Verdana;-inkscape-font-specification:'Verdana, Normal';font-variant-ligatures:normal;font-variant-caps:normal;font-variant-numeric:normal;font-variant-east-asian:normal;fill:#7fd15c;fill-opacity:1;stroke-width:0.265;stroke-miterlimit:4;stroke-dasharray:none"
         x="156.75244"
         y="92.351562">2</tspan><tspan
         sodipodi:role="line"
         style="fill:#7fd15c;fill-opacity:1;stroke-width:0.265;stroke-miterlimit:4;stroke-dasharray:none"
         x="156.75244"
         y="110.58384"
         id="tspan55439-2-4" /></text>
    <text
       xml:space="preserve"
       style="font-style:normal;font-weight:normal;font-size:10.5833px;line-height:1.25;font-family:sans-serif;fill:#7fd15c;fill-opacity:1;stroke:none;stroke-width:0.265;stroke-miterlimit:4;stroke-dasharray:none"
       x="186.75244"
       y="92.351562"
       id="text55437-5-5"><tspan
         sodipodi:role="line"
         id="tspan55435-2-8"
         style="font-style:normal;font-variant:normal;font-weight:normal;font-stretch:normal;font-size:25.4px;font-family:Verdana;-inkscape-font-specification:'Verdana, Normal';font-variant-ligatures:normal;font-variant-caps:normal;font-variant-numeric:normal;font-variant-east-asian:normal;fill:#7fd15c;fill-opacity:1;stroke-width:0.265;stroke-miterlimit:4;stroke-dasharray:none"
         x="186.75244"
         y="92.351562">2</tspan><tspan
         sodipodi:role="line"
         style="fill:#7fd15c;fill-opacity:1;stroke-width:0.265;stroke-miterlimit:4;stroke-dasharray:none"
         x="186.75244"
         y="110.58384"
         id="tspan55439-2-0" /></text>
  </g>
  <g
     inkscape:groupmode="layer"
     id="layer5"
     inkscape:label="Birch leaf"
     transform="translate(10,5.2681822)"
     sodipodi:insensitive="true">
    <path
       style="display:inline;fill:#509350;fill-opacity:1;stroke:none;stroke-width:0.269785px;stroke-linecap:butt;stroke-linejoin:miter;stroke-opacity:1"
       d="M 100,300 C 36.955599,300.54149 9.6386633,257.86605 9.6386633,257.86605 l 7.4487327,-4.21596 c 0,0 -7.005126,-8.51108 -15.1450944,-21.53127 l 13.0246854,0.24111 -9.0782006,-22.43723 7.4739286,-1.32613 c 0,0 -5.0567645,-13.95686 -6.3102032,-29.14707 0,0 7.4094112,4.39858 18.9410412,3.55467 0,0 -4.969846,-5.17926 -4.615321,-21.88764 0,0 2.836207,4.77382 9.572198,4.09185 0,0 -2.481681,-9.37716 3.545258,-34.95121 0,0 2.658943,6.47877 18.258079,6.13778 l 4.25431,-25.40357 4.254308,0.76723 2.570312,-15.770666 7.799567,0.68198 3.190733,-22.078936 8.331358,1.108208 c 0,0 2.758915,-16.918771 16.845645,-36.610792 M 100,300 c 63.0444,0.54149 90.36134,-42.13395 90.36134,-42.13395 l -7.44874,-4.21596 c 0,0 7.00513,-8.51108 15.1451,-21.53127 l -13.02469,0.24111 9.0782,-22.43723 -7.47393,-1.32613 c 0,0 5.05677,-13.95686 6.31021,-29.14707 0,0 -7.40941,4.39858 -18.94104,3.55467 0,0 4.96984,-5.17926 4.61532,-21.88764 0,0 -2.83621,4.77382 -9.5722,4.09185 0,0 2.48168,-9.37716 -3.54526,-34.95121 0,0 -2.65894,6.47877 -18.25808,6.13778 l -4.25431,-25.40357 -4.25431,0.76723 -2.57031,-15.770666 -7.79956,0.68198 -3.19074,-22.078936 -8.33135,1.108208 c 0,0 -2.75892,-16.918771 -16.84565,-36.610792"
       id="path93977"
       sodipodi:nodetypes="cccccccccccccccccccc"
       inkscape:path-effect="#path-effect99452"
       inkscape:original-d="M 100,300 C 36.955599,300.54149 9.6386633,257.86605 9.6386633,257.86605 l 7.4487327,-4.21596 c 0,0 -7.005126,-8.51108 -15.1450944,-21.53127 l 13.0246854,0.24111 -9.0782006,-22.43723 7.4739286,-1.32613 c 0,0 -5.0567645,-13.95686 -6.3102032,-29.14707 0,0 7.4094112,4.39858 18.9410412,3.55467 0,0 -4.969846,-5.17926 -4.615321,-21.88764 0,0 2.836207,4.77382 9.572198,4.09185 0,0 -2.481681,-9.37716 3.545258,-34.95121 0,0 2.658943,6.47877 18.258079,6.13778 l 4.25431,-25.40357 4.254308,0.76723 2.570312,-15.770666 7.799567,0.68198 3.190733,-22.078936 8.331358,1.108208 c 0,0 2.758915,-16.918771 16.845645,-36.610792"
       transform="matrix(-0.09751882,0.0193947,-0.0193947,-0.09751882,210.51841,70.929895)" />
    <path
       style="display:inline;fill:#7fd15c;fill-opacity:1;stroke:none;stroke-width:0.269785px;stroke-linecap:butt;stroke-linejoin:miter;stroke-opacity:1"
       d="M 100,300 C 36.955599,300.54149 9.6386633,257.86605 9.6386633,257.86605 l 7.4487327,-4.21596 c 0,0 -7.005126,-8.51108 -15.1450944,-21.53127 l 13.0246854,0.24111 -9.0782006,-22.43723 7.4739286,-1.32613 c 0,0 -5.0567645,-13.95686 -6.3102032,-29.14707 0,0 7.4094112,4.39858 18.9410412,3.55467 0,0 -4.969846,-5.17926 -4.615321,-21.88764 0,0 2.836207,4.77382 9.572198,4.09185 0,0 -2.481681,-9.37716 3.545258,-34.95121 0,0 2.658943,6.47877 18.258079,6.13778 l 4.25431,-25.40357 4.254308,0.76723 2.570312,-15.770666 7.799567,0.68198 3.190733,-22.078936 8.331358,1.108208 c 0,0 2.758915,-16.918771 16.845645,-36.610792 M 100,300 c 63.0444,0.54149 90.36134,-42.13395 90.36134,-42.13395 l -7.44874,-4.21596 c 0,0 7.00513,-8.51108 15.1451,-21.53127 l -13.02469,0.24111 9.0782,-22.43723 -7.47393,-1.32613 c 0,0 5.05677,-13.95686 6.31021,-29.14707 0,0 -7.40941,4.39858 -18.94104,3.55467 0,0 4.96984,-5.17926 4.61532,-21.88764 0,0 -2.83621,4.77382 -9.5722,4.09185 0,0 2.48168,-9.37716 -3.54526,-34.95121 0,0 -2.65894,6.47877 -18.25808,6.13778 l -4.25431,-25.40357 -4.25431,0.76723 -2.57031,-15.770666 -7.79956,0.68198 -3.19074,-22.078936 -8.33135,1.108208 c 0,0 -2.75892,-16.918771 -16.84565,-36.610792"
       id="path93977-4"
       sodipodi:nodetypes="cccccccccccccccccccc"
       inkscape:path-effect="#path-effect99452-1"
       inkscape:original-d="M 100,300 C 36.955599,300.54149 9.6386633,257.86605 9.6386633,257.86605 l 7.4487327,-4.21596 c 0,0 -7.005126,-8.51108 -15.1450944,-21.53127 l 13.0246854,0.24111 -9.0782006,-22.43723 7.4739286,-1.32613 c 0,0 -5.0567645,-13.95686 -6.3102032,-29.14707 0,0 7.4094112,4.39858 18.9410412,3.55467 0,0 -4.969846,-5.17926 -4.615321,-21.88764 0,0 2.836207,4.77382 9.572198,4.09185 0,0 -2.481681,-9.37716 3.545258,-34.95121 0,0 2.658943,6.47877 18.258079,6.13778 l 4.25431,-25.40357 4.254308,0.76723 2.570312,-15.770666 7.799567,0.68198 3.190733,-22.078936 8.331358,1.108208 c 0,0 2.758915,-16.918771 16.845645,-36.610792"
       transform="matrix(-0.09942874,0,0,-0.09942874,288.44781,80.42545)" />
    <path
       style="display:inline;fill:#509350;fill-opacity:1;stroke:none;stroke-width:0.269785px;stroke-linecap:butt;stroke-linejoin:miter;stroke-opacity:1"
       d="M 100,300 C 36.955599,300.54149 9.6386633,257.86605 9.6386633,257.86605 l 7.4487327,-4.21596 c 0,0 -7.005126,-8.51108 -15.1450944,-21.53127 l 13.0246854,0.24111 -9.0782006,-22.43723 7.4739286,-1.32613 c 0,0 -5.0567645,-13.95686 -6.3102032,-29.14707 0,0 7.4094112,4.39858 18.9410412,3.55467 0,0 -4.969846,-5.17926 -4.615321,-21.88764 0,0 2.836207,4.77382 9.572198,4.09185 0,0 -2.481681,-9.37716 3.545258,-34.95121 0,0 2.658943,6.47877 18.258079,6.13778 l 4.25431,-25.40357 4.254308,0.76723 2.570312,-15.770666 7.799567,0.68198 3.190733,-22.078936 8.331358,1.108208 c 0,0 2.758915,-16.918771 16.845645,-36.610792 M 100,300 c 63.0444,0.54149 90.36134,-42.13395 90.36134,-42.13395 l -7.44874,-4.21596 c 0,0 7.00513,-8.51108 15.1451,-21.53127 l -13.02469,0.24111 9.0782,-22.43723 -7.47393,-1.32613 c 0,0 5.05677,-13.95686 6.31021,-29.14707 0,0 -7.40941,4.39858 -18.94104,3.55467 0,0 4.96984,-5.17926 4.61532,-21.88764 0,0 -2.83621,4.77382 -9.5722,4.09185 0,0 2.48168,-9.37716 -3.54526,-34.95121 0,0 -2.65894,6.47877 -18.25808,6.13778 l -4.25431,-25.40357 -4.25431,0.76723 -2.57031,-15.770666 -7.79956,0.68198 -3.19074,-22.078936 -8.33135,1.108208 c 0,0 -2.75892,-16.918771 -16.84565,-36.610792"
       id="path93977-5"
       sodipodi:nodetypes="cccccccccccccccccccc"
       inkscape:path-effect="#path-effect99452-3"
       inkscape:original-d="M 100,300 C 36.955599,300.54149 9.6386633,257.86605 9.6386633,257.86605 l 7.4487327,-4.21596 c 0,0 -7.005126,-8.51108 -15.1450944,-21.53127 l 13.0246854,0.24111 -9.0782006,-22.43723 7.4739286,-1.32613 c 0,0 -5.0567645,-13.95686 -6.3102032,-29.14707 0,0 7.4094112,4.39858 18.9410412,3.55467 0,0 -4.969846,-5.17926 -4.615321,-21.88764 0,0 2.836207,4.77382 9.572198,4.09185 0,0 -2.481681,-9.37716 3.545258,-34.95121 0,0 2.658943,6.47877 18.258079,6.13778 l 4.25431,-25.40357 4.254308,0.76723 2.570312,-15.770666 7.799567,0.68198 3.190733,-22.078936 8.331358,1.108208 c 0,0 2.758915,-16.918771 16.845645,-36.610792"
       transform="matrix(0.09942874,0,0,0.09942874,11.294943,59.808404)" />
    <path
       style="display:inline;fill:#7fd15c;fill-opacity:1;stroke:none;stroke-width:0.269785px;stroke-linecap:butt;stroke-linejoin:miter;stroke-opacity:1"
       d="M 100,300 C 36.955599,300.54149 9.6386633,257.86605 9.6386633,257.86605 l 7.4487327,-4.21596 c 0,0 -7.005126,-8.51108 -15.1450944,-21.53127 l 13.0246854,0.24111 -9.0782006,-22.43723 7.4739286,-1.32613 c 0,0 -5.0567645,-13.95686 -6.3102032,-29.14707 0,0 7.4094112,4.39858 18.9410412,3.55467 0,0 -4.969846,-5.17926 -4.615321,-21.88764 0,0 2.836207,4.77382 9.572198,4.09185 0,0 -2.481681,-9.37716 3.545258,-34.95121 0,0 2.658943,6.47877 18.258079,6.13778 l 4.25431,-25.40357 4.254308,0.76723 2.570312,-15.770666 7.799567,0.68198 3.190733,-22.078936 8.331358,1.108208 c 0,0 2.758915,-16.918771 16.845645,-36.610792 M 100,300 c 63.0444,0.54149 90.36134,-42.13395 90.36134,-42.13395 l -7.44874,-4.21596 c 0,0 7.00513,-8.51108 15.1451,-21.53127 l -13.02469,0.24111 9.0782,-22.43723 -7.47393,-1.32613 c 0,0 5.05677,-13.95686 6.31021,-29.14707 0,0 -7.40941,4.39858 -18.94104,3.55467 0,0 4.96984,-5.17926 4.61532,-21.88764 0,0 -2.83621,4.77382 -9.5722,4.09185 0,0 2.48168,-9.37716 -3.54526,-34.95121 0,0 -2.65894,6.47877 -18.25808,6.13778 l -4.25431,-25.40357 -4.25431,0.76723 -2.57031,-15.770666 -7.79956,0.68198 -3.19074,-22.078936 -8.33135,1.108208 c 0,0 -2.75892,-16.918771 -16.84565,-36.610792"
       id="path93977-57"
       sodipodi:nodetypes="cccccccccccccccccccc"
       inkscape:path-effect="#path-effect99452-7"
       inkscape:original-d="M 100,300 C 36.955599,300.54149 9.6386633,257.86605 9.6386633,257.86605 l 7.4487327,-4.21596 c 0,0 -7.005126,-8.51108 -15.1450944,-21.53127 l 13.0246854,0.24111 -9.0782006,-22.43723 7.4739286,-1.32613 c 0,0 -5.0567645,-13.95686 -6.3102032,-29.14707 0,0 7.4094112,4.39858 18.9410412,3.55467 0,0 -4.969846,-5.17926 -4.615321,-21.88764 0,0 2.836207,4.77382 9.572198,4.09185 0,0 -2.481681,-9.37716 3.545258,-34.95121 0,0 2.658943,6.47877 18.258079,6.13778 l 4.25431,-25.40357 4.254308,0.76723 2.570312,-15.770666 7.799567,0.68198 3.190733,-22.078936 8.331358,1.108208 c 0,0 2.758915,-16.918771 16.845645,-36.610792"
       transform="matrix(-0.09942874,0,0,-0.09942874,197.13559,139.07136)" />
    <path
       style="display:inline;fill:#509350;fill-opacity:1;stroke:none;stroke-width:0.269785px;stroke-linecap:butt;stroke-linejoin:miter;stroke-opacity:1"
       d="M 100,300 C 36.955599,300.54149 9.6386633,257.86605 9.6386633,257.86605 l 7.4487327,-4.21596 c 0,0 -7.005126,-8.51108 -15.1450944,-21.53127 l 13.0246854,0.24111 -9.0782006,-22.43723 7.4739286,-1.32613 c 0,0 -5.0567645,-13.95686 -6.3102032,-29.14707 0,0 7.4094112,4.39858 18.9410412,3.55467 0,0 -4.969846,-5.17926 -4.615321,-21.88764 0,0 2.836207,4.77382 9.572198,4.09185 0,0 -2.481681,-9.37716 3.545258,-34.95121 0,0 2.658943,6.47877 18.258079,6.13778 l 4.25431,-25.40357 4.254308,0.76723 2.570312,-15.770666 7.799567,0.68198 3.190733,-22.078936 8.331358,1.108208 c 0,0 2.758915,-16.918771 16.845645,-36.610792 M 100,300 c 63.0444,0.54149 90.36134,-42.13395 90.36134,-42.13395 l -7.44874,-4.21596 c 0,0 7.00513,-8.51108 15.1451,-21.53127 l -13.02469,0.24111 9.0782,-22.43723 -7.47393,-1.32613 c 0,0 5.05677,-13.95686 6.31021,-29.14707 0,0 -7.40941,4.39858 -18.94104,3.55467 0,0 4.96984,-5.17926 4.61532,-21.88764 0,0 -2.83621,4.77382 -9.5722,4.09185 0,0 2.48168,-9.37716 -3.54526,-34.95121 0,0 -2.65894,6.47877 -18.25808,6.13778 l -4.25431,-25.40357 -4.25431,0.76723 -2.57031,-15.770666 -7.79956,0.68198 -3.19074,-22.078936 -8.33135,1.108208 c 0,0 -2.75892,-16.918771 -16.84565,-36.610792"
       id="path93977-6"
       sodipodi:nodetypes="cccccccccccccccccccc"
       inkscape:path-effect="#path-effect99452-34"
       inkscape:original-d="M 100,300 C 36.955599,300.54149 9.6386633,257.86605 9.6386633,257.86605 l 7.4487327,-4.21596 c 0,0 -7.005126,-8.51108 -15.1450944,-21.53127 l 13.0246854,0.24111 -9.0782006,-22.43723 7.4739286,-1.32613 c 0,0 -5.0567645,-13.95686 -6.3102032,-29.14707 0,0 7.4094112,4.39858 18.9410412,3.55467 0,0 -4.969846,-5.17926 -4.615321,-21.88764 0,0 2.836207,4.77382 9.572198,4.09185 0,0 -2.481681,-9.37716 3.545258,-34.95121 0,0 2.658943,6.47877 18.258079,6.13778 l 4.25431,-25.40357 4.254308,0.76723 2.570312,-15.770666 7.799567,0.68198 3.190733,-22.078936 8.331358,1.108208 c 0,0 2.758915,-16.918771 16.845645,-36.610792"
       transform="matrix(0.09942874,0,0,0.09942874,116.26338,0.845307)" />
  </g>
</svg>
