<?xml version="1.0" encoding="utf-8"?>
<!-- Generator: Adobe Illustrator 25.0.1, SVG Export Plug-In . SVG Version: 6.00 Build 0)  -->
<svg version="1.1" id="Lager_1" xmlns="http://www.w3.org/2000/svg" xmlns:xlink="http://www.w3.org/1999/xlink" x="0px" y="0px"
	 viewBox="0 0 210.1 85.2" style="enable-background:new 0 0 210.1 85.2;" xml:space="preserve">
<style type="text/css">
	.st0{fill:none;}
	.st1{fill:#1D1E1B;}
	.st2{fill:#7BAFDF;}
	.st3{fill:#BAD3EB;}
	.st4{fill:#90BBE4;}
	.st5{fill:#5391CE;}
</style>
<rect class="st0" width="210.1" height="85.2"/>
<g>
	<g>
		<path class="st1" d="M94.2,39.5h1.3l4.6,7.3h0v-7.3h1.3V49h-1.3l-4.7-7.3h0V49h-1.2V39.5z"/>
		<path class="st1" d="M105.9,46v-3.2c0-2.2,1.7-3.4,3.7-3.4c2,0,3.7,1.3,3.7,3.3v3c0,2.2-1.7,3.5-3.7,3.5
			C107.7,49.2,105.9,48.1,105.9,46z M112,45.8v-3.2c0-1.3-1-2.1-2.4-2.1c-1.2,0-2.3,0.8-2.3,2.3v3.1c0,1.3,1,2.2,2.4,2.2
			C110.9,48,112,47.3,112,45.8z"/>
		<path class="st1" d="M117.9,39.5h3.5c1.8,0,3.1,1,3.1,2.9c0,1.2-0.7,2.4-2.2,2.7L125,49h-1.4l-2.5-3.7h-1.8V49h-1.3V39.5z
			 M121.1,44.2c1.3,0,2.1-0.6,2.1-1.8c0-1.3-0.9-1.8-2.1-1.8h-1.9v3.6H121.1z"/>
		<path class="st1" d="M129.1,39.5h3.6c2,0,3.5,1.2,3.5,3.3v2.9c0,2.1-1.7,3.3-3.5,3.3h-3.6V39.5z M132.6,47.9
			c1.3,0,2.3-0.8,2.3-2.1v-3c0-1.3-0.9-2.1-2.3-2.1h-2.2v7.2H132.6z"/>
		<path class="st1" d="M140.7,39.5h1.3V49h-1.3V39.5z"/>
		<path class="st1" d="M146.6,46v-3.2c0-2.1,1.6-3.4,3.7-3.4c1.9,0,3.5,1.1,3.5,2.9v0.4h-1.2v-0.3c0-1.3-1-1.9-2.3-1.9
			c-1.2,0-2.3,0.7-2.3,2.2v3.1c0,1.3,1,2.2,2.4,2.2c1.2,0,2.2-0.7,2.2-1.9v-0.2h1.2v0.3c0,1.9-1.6,2.9-3.4,2.9
			C148.3,49.2,146.6,48.1,146.6,46z"/>
		<path class="st1" d="M94.2,54.2H98c1.7,0,2.8,0.8,2.8,2.4c0,0.9-0.5,1.8-1.6,2.1v0c1.2,0.2,1.8,1.2,1.8,2.3c0,1.8-1.4,2.7-2.9,2.7
			h-3.9V54.2z M97.7,58.3c1,0,1.8-0.5,1.8-1.5c0-1-0.7-1.5-1.8-1.5h-2.2v3H97.7z M97.9,62.6c1.1,0,1.9-0.5,1.9-1.6
			c0-1.1-0.8-1.6-1.9-1.6h-2.4v3.2H97.9z"/>
		<path class="st1" d="M105.4,54.2h1.3v9.5h-1.3V54.2z"/>
		<path class="st1" d="M111.3,60.7v-3.2c0-2.2,1.7-3.4,3.7-3.4c2,0,3.7,1.3,3.7,3.3v3c0,2.2-1.7,3.5-3.7,3.5
			C113,63.9,111.3,62.8,111.3,60.7z M117.4,60.5v-3.2c0-1.3-1-2.1-2.4-2.1c-1.2,0-2.3,0.8-2.3,2.3v3.1c0,1.3,1,2.2,2.4,2.2
			C116.2,62.7,117.4,62,117.4,60.5z"/>
		<path class="st1" d="M123.2,54.2h1.6l2.8,5.9h0l2.7-5.9h1.6v9.5h-1.3v-7.2h0l-2.6,5.4h-1l-2.6-5.3h0v7.2h-1.3V54.2z"/>
		<path class="st1" d="M139.6,54.2h1.2l3.5,9.5h-1.4l-0.9-2.5h-3.8l-0.9,2.5H136L139.6,54.2z M141.7,60.1l-1.5-4.3h0l-1.5,4.3H141.7
			z"/>
		<path class="st1" d="M148.3,54.2h3.5c1.8,0,3.1,1,3.1,2.9c0,1.2-0.7,2.4-2.2,2.7l2.6,3.9H154l-2.5-3.7h-1.8v3.7h-1.3V54.2z
			 M151.6,58.9c1.3,0,2.1-0.6,2.1-1.8c0-1.3-0.9-1.8-2.1-1.8h-1.9v3.6H151.6z"/>
		<path class="st1" d="M159.5,54.2h1.3V59l4.3-4.8h1.6l-3.4,3.7l3.7,5.8h-1.5l-3.1-4.8l-1.6,1.7v3.2h-1.3V54.2z"/>
		<path class="st1" d="M171,54.2h6.3v1.2h-5v2.9h4.2v1.1h-4.2v3.2h5v1.2H171V54.2z"/>
		<path class="st1" d="M181.8,54.2h3.5c1.8,0,3.1,1,3.1,2.9c0,1.2-0.7,2.4-2.2,2.7l2.6,3.9h-1.4l-2.5-3.7h-1.8v3.7h-1.3V54.2z
			 M185,58.9c1.3,0,2.1-0.6,2.1-1.8c0-1.3-0.9-1.8-2.1-1.8h-1.9v3.6H185z"/>
	</g>
</g>
<polygon class="st2" points="49,43.7 61.8,21.3 86.3,63.7 60.3,63.7 "/>
<polyline class="st3" points="37.5,63.7 21.3,63.7 40.9,29.5 49,43.7 37.5,63.7 "/>
<polygon class="st4" points="37.5,63.7 60.3,63.7 49,43.7 "/>
<polygon class="st5" points="37.5,63.7 60.3,63.7 49,43.7 "/>
</svg>
