<svg id="Lager_1" data-name="Lager 1" xmlns="http://www.w3.org/2000/svg" viewBox="0 0 214.63 138.18"><defs><style>.cls-1{fill:#a0afb6;}.cls-2{fill:#86c1d0;}</style></defs><polyline class="cls-1" points="42.98 84.56 36.68 84.56 36.68 79.97 49.52 79.97 49.52 84.01 42.65 96.92 49.52 96.92 49.52 101.5 36.23 101.5 36.23 97.46 42.98 84.56"/><path class="cls-1" d="M61,85.6a9,9,0,0,1,1.3-3.47,5.18,5.18,0,0,1,2.38-2,10.88,10.88,0,0,1,7.24,0,5.28,5.28,0,0,1,2.38,2,9.12,9.12,0,0,1,1.29,3.47,33.22,33.22,0,0,1,0,10.28,9.13,9.13,0,0,1-1.29,3.46,5,5,0,0,1-2.38,1.92,11.78,11.78,0,0,1-7.24,0,4.92,4.92,0,0,1-2.38-1.92A9,9,0,0,1,61,95.88,34.07,34.07,0,0,1,61,85.6m5.46,8.74a13.23,13.23,0,0,0,.25,2.28,2.2,2.2,0,0,0,.58,1.17,1.71,1.71,0,0,0,2,0,2.2,2.2,0,0,0,.57-1.17,13.08,13.08,0,0,0,.26-2.28c0-1,.06-2.16.06-3.6s0-2.65-.06-3.61a12.83,12.83,0,0,0-.26-2.27,2.2,2.2,0,0,0-.57-1.18,1.71,1.71,0,0,0-2,0,2.2,2.2,0,0,0-.58,1.18,13,13,0,0,0-.25,2.27c0,1-.06,2.16-.06,3.61S66.39,93.39,66.43,94.34Z"/><polyline class="cls-1" points="94.15 84.56 87.85 84.56 87.85 79.97 100.69 79.97 100.69 84.01 93.82 96.92 100.69 96.92 100.69 101.5 87.4 101.5 87.4 97.46 94.15 84.56"/><rect class="cls-1" x="112.17" y="79.97" width="5.61" height="21.53"/><path class="cls-1" d="M135.73,95.5a3.44,3.44,0,0,0,.45,2.1,1.74,1.74,0,0,0,2.48,0,3.44,3.44,0,0,0,.45-2.1V80h5.61V94.08a12.54,12.54,0,0,1-.49,3.77,5.64,5.64,0,0,1-1.4,2.41,4.72,4.72,0,0,1-2.27,1.24,15,15,0,0,1-6.26,0,4.7,4.7,0,0,1-2.29-1.24,5.64,5.64,0,0,1-1.4-2.41,12.23,12.23,0,0,1-.49-3.77V80h5.61V95.5"/><polyline class="cls-1" points="165.35 79.97 167.62 92.73 167.68 92.73 169.94 79.97 177.96 79.97 177.96 101.5 172.71 101.5 172.71 85.46 172.65 85.46 169.66 101.5 165.63 101.5 162.64 85.46 162.58 85.46 162.58 101.5 157.33 101.5 157.33 79.97 165.35 79.97"/><polyline class="cls-2" points="107.14 73.35 107.09 71.97 107.09 65.25 97.87 59.82 107.09 49.99 107.09 60.06 116.29 50.19 107.09 44.77 107.09 38.94 107.09 36.68 91.38 45.93 91.38 53.95 100.25 48.78 91.38 58.2 91.38 64.1 107.09 73.36"/><polyline class="cls-2" points="122.8 56.1 122.8 51.79 113.99 61.23 122.8 56.1"/></svg>